<svg width="6" height="7" viewBox="0 0 6 7" fill="none" xmlns="http://www.w3.org/2000/svg">
<g clip-path="url(#clip0_288_706)">
<path d="M3.13851 2.31431C2.42643 2.31431 1.85207 2.88572 1.85207 3.59413C1.85207 4.30254 2.42643 4.87395 3.13851 4.87395C3.85059 4.87395 4.42496 4.30254 4.42496 3.59413C4.42496 2.88572 3.85059 2.31431 3.13851 2.31431ZM3.13851 4.42618C2.67835 4.42618 2.30215 4.05304 2.30215 3.59413C2.30215 3.13522 2.67723 2.76208 3.13851 2.76208C3.5998 2.76208 3.97487 3.13522 3.97487 3.59413C3.97487 4.05304 3.59868 4.42618 3.13851 4.42618ZM4.77764 2.26196C4.77764 2.42793 4.64328 2.56048 4.47758 2.56048C4.31076 2.56048 4.17752 2.42681 4.17752 2.26196C4.17752 2.09711 4.31187 1.96345 4.47758 1.96345C4.64328 1.96345 4.77764 2.09711 4.77764 2.26196ZM5.62967 2.56493C5.61064 2.16506 5.51883 1.81085 5.22437 1.51902C4.93103 1.22719 4.57499 1.13586 4.17304 1.11581C3.75878 1.09242 2.51712 1.09242 2.10286 1.11581C1.70204 1.13475 1.346 1.22608 1.05154 1.51791C0.757078 1.80974 0.666388 2.16394 0.646235 2.56382C0.622723 2.97594 0.622723 4.2112 0.646235 4.62333C0.665269 5.0232 0.757078 5.37741 1.05154 5.66924C1.346 5.96107 1.70092 6.0524 2.10286 6.07245C2.51712 6.09584 3.75878 6.09584 4.17304 6.07245C4.57499 6.05352 4.93103 5.96218 5.22437 5.66924C5.51771 5.37741 5.60952 5.0232 5.62967 4.62333C5.65318 4.2112 5.65318 2.97706 5.62967 2.56493ZM5.09449 5.06553C5.00716 5.28384 4.8381 5.45204 4.61753 5.54003C4.28724 5.67035 3.50351 5.64028 3.13851 5.64028C2.77352 5.64028 1.98866 5.66924 1.65949 5.54003C1.44005 5.45315 1.27098 5.28496 1.18253 5.06553C1.05154 4.73694 1.08177 3.95725 1.08177 3.59413C1.08177 3.23101 1.05266 2.4502 1.18253 2.12273C1.26986 1.90442 1.43893 1.73623 1.65949 1.64823C1.98978 1.51791 2.77352 1.54798 3.13851 1.54798C3.50351 1.54798 4.28836 1.51902 4.61753 1.64823C4.83698 1.73511 5.00604 1.9033 5.09449 2.12273C5.22549 2.45132 5.19526 3.23101 5.19526 3.59413C5.19526 3.95725 5.22549 4.73806 5.09449 5.06553Z" fill="white"/>
</g>
<defs>
<clipPath id="clip0_288_706">
<rect width="5.06927" height="5.70292" fill="white" transform="translate(0.642883 0.743652)"/>
</clipPath>
</defs>
</svg>
