<svg width="6" height="5" viewBox="0 0 6 5" fill="none" xmlns="http://www.w3.org/2000/svg">
<g clip-path="url(#clip0_288_701)">
<path d="M1.5607 4.81287V1.6064H0.485322V4.81287H1.5607ZM1.02315 1.16835C1.39815 1.16835 1.63158 0.922132 1.63158 0.61444C1.62459 0.29981 1.39817 0.0604248 1.03027 0.0604248C0.662423 0.0604248 0.421875 0.299815 0.421875 0.61444C0.421875 0.922146 0.655239 1.16835 1.01613 1.16835H1.02312H1.02315ZM2.15592 4.81287H3.2313V3.02222C3.2313 2.92639 3.23829 2.83065 3.26669 2.76215C3.34443 2.57068 3.52137 2.37237 3.81843 2.37237C4.20757 2.37237 4.36325 2.66641 4.36325 3.09746V4.81284H5.43856V2.97429C5.43856 1.98939 4.90802 1.53112 4.20049 1.53112C3.62036 1.53112 3.36565 1.85249 3.22415 2.07138H3.23132V1.60634H2.15594C2.17006 1.90721 2.15594 4.8128 2.15594 4.8128L2.15592 4.81287Z" fill="white"/>
</g>
<defs>
<clipPath id="clip0_288_701">
<rect width="5.06927" height="4.75244" fill="white" transform="translate(0.435242 0.0604858)"/>
</clipPath>
</defs>
</svg>
