<svg width="7" height="5" viewBox="0 0 7 5" fill="none" xmlns="http://www.w3.org/2000/svg">
<g clip-path="url(#clip0_288_696)">
<path d="M6.54347 0.917577C6.33216 1.00771 6.10803 1.06687 5.87853 1.09309C6.11758 0.955142 6.30113 0.736694 6.38756 0.476415C6.16031 0.606254 5.91169 0.697734 5.65242 0.746902C5.44123 0.530279 5.14037 0.394897 4.80737 0.394897C4.16801 0.394897 3.64963 0.893977 3.64963 1.50953C3.64963 1.5969 3.65988 1.68197 3.67961 1.76357C2.71745 1.71707 1.86441 1.27332 1.29339 0.598935C1.19376 0.763562 1.13667 0.955057 1.13667 1.15931C1.13667 1.54603 1.34107 1.88719 1.6517 2.08709C1.46785 2.08155 1.28805 2.03374 1.1273 1.94766C1.12724 1.95233 1.12724 1.957 1.12724 1.96169C1.12724 2.50175 1.5263 2.95227 2.05589 3.05467C1.88541 3.09931 1.70659 3.10584 1.53308 3.07377C1.6804 3.51661 2.10795 3.83886 2.61454 3.84788C2.21832 4.14683 1.71912 4.32504 1.17674 4.32504C1.08328 4.32504 0.991147 4.31975 0.900574 4.30946C1.41291 4.62572 2.02144 4.81026 2.67522 4.81026C4.80469 4.81026 5.96913 3.11176 5.96913 1.6388C5.96913 1.59045 5.96803 1.54238 5.96578 1.49459C6.19243 1.33683 6.38805 1.14144 6.54347 0.917577Z" fill="white"/>
</g>
<defs>
<clipPath id="clip0_288_696">
<rect width="5.70292" height="4.43561" fill="white" transform="translate(0.910583 0.377258)"/>
</clipPath>
</defs>
</svg>
